<svg width="24" height="24" viewBox="0 0 24 24" fill="none" xmlns="http://www.w3.org/2000/svg">
<path d="M8.35669 2.26965V5.1737M16.1008 2.26965V5.1737" stroke="black" stroke-width="1.56062" stroke-miterlimit="10" stroke-linecap="round" stroke-linejoin="round"/>
<path d="M21.9084 21.6299L20.9404 20.6619M18.23 21.0491C19.0515 21.0491 19.8394 20.7228 20.4203 20.1418C21.0013 19.5609 21.3276 18.773 21.3276 17.9515C21.3276 17.1299 21.0013 16.342 20.4203 15.7611C19.8394 15.1802 19.0515 14.8538 18.23 14.8538C17.4084 14.8538 16.6205 15.1802 16.0396 15.7611C15.4587 16.342 15.1323 17.1299 15.1323 17.9515C15.1323 18.773 15.4587 19.5609 16.0396 20.1418C16.6205 20.7228 17.4084 21.0491 18.23 21.0491Z" stroke="black" stroke-width="1.56062" stroke-linecap="round" stroke-linejoin="round"/>
<path d="M4.00037 9.13283H20.4566M13.5547 21.6299H8.35644C4.96838 21.6299 3.51636 19.6939 3.51636 16.7898V8.5617C3.51636 5.65765 4.96838 3.72162 8.35644 3.72162H16.1006C19.4886 3.72162 20.9406 5.65765 20.9406 8.5617V12.9178" stroke="black" stroke-width="1.56062" stroke-miterlimit="10" stroke-linecap="round" stroke-linejoin="round"/>
<path d="M12.224 13.5954H12.2337M8.64136 13.5954H8.65104M8.64136 16.4994H8.65104" stroke="black" stroke-width="2.08082" stroke-linecap="round" stroke-linejoin="round"/>
</svg>
