<svg width="24" height="24" viewBox="0 0 24 24" fill="none" xmlns="http://www.w3.org/2000/svg">
<path d="M21.8379 10.885V4.30249C21.8379 2.85046 21.2183 2.26965 19.6792 2.26965H15.7684C14.2293 2.26965 13.6097 2.85046 13.6097 4.30249V10.885C13.6097 12.337 14.2293 12.9178 15.7684 12.9178H19.6792C21.2183 12.9178 21.8379 12.337 21.8379 10.885ZM21.8379 19.5971V17.8547C21.8379 16.4027 21.2183 15.8219 19.6792 15.8219H15.7684C14.2293 15.8219 13.6097 16.4027 13.6097 17.8547V19.5971C13.6097 21.0492 14.2293 21.63 15.7684 21.63H19.6792C21.2183 21.63 21.8379 21.0492 21.8379 19.5971ZM10.7057 13.0146V19.5971C10.7057 21.0492 10.0861 21.63 8.547 21.63H4.63622C3.09707 21.63 2.47754 21.0492 2.47754 19.5971V13.0146C2.47754 11.5626 3.09707 10.9818 4.63622 10.9818H8.547C10.0861 10.9818 10.7057 11.5626 10.7057 13.0146ZM10.7057 4.30249V6.04492C10.7057 7.49694 10.0861 8.07775 8.547 8.07775H4.63622C3.09707 8.07775 2.47754 7.49694 2.47754 6.04492V4.30249C2.47754 2.85046 3.09707 2.26965 4.63622 2.26965H8.547C10.0861 2.26965 10.7057 2.85046 10.7057 4.30249Z" stroke="black" stroke-width="1.56062" stroke-linecap="round" stroke-linejoin="round"/>
</svg>
