<svg width="24" height="24" viewBox="0 0 24 24" fill="none" xmlns="http://www.w3.org/2000/svg">
<path d="M19.065 17.0416H15.5995M17.3323 15.3476V18.8227M17.3323 21.63C18.5646 21.63 19.7464 21.1405 20.6178 20.2691C21.4892 19.3977 21.9787 18.2158 21.9787 16.9835C21.9787 15.7512 21.4892 14.5693 20.6178 13.698C19.7464 12.8266 18.5646 12.337 17.3323 12.337C16.0999 12.337 14.9181 12.8266 14.0467 13.698C13.1753 14.5693 12.6858 15.7512 12.6858 16.9835C12.6858 18.2158 13.1753 19.3977 14.0467 20.2691C14.9181 21.1405 16.0999 21.63 17.3323 21.63Z" stroke="black" stroke-width="1.56062" stroke-miterlimit="10" stroke-linecap="round" stroke-linejoin="round"/>
<path d="M21.9792 8.74568C21.9792 10.6527 21.4855 12.337 20.7111 13.7987C20.2775 13.3375 19.7541 12.97 19.1731 12.7186C18.5921 12.4672 17.9658 12.3374 17.3327 12.337C14.7675 12.337 12.6863 14.4183 12.6863 16.9835C12.6863 18.1742 13.1412 19.2583 13.8769 20.0812C13.5188 20.2457 13.1896 20.3812 12.8992 20.478C12.5701 20.5942 12.028 20.5942 11.6989 20.478C8.89164 19.5197 2.6189 15.5218 2.6189 8.74568C2.6189 5.75451 5.02926 3.33447 8.00107 3.33447C9.75318 3.33447 11.3214 4.18633 12.2991 5.49315C12.7984 4.82407 13.4469 4.2806 14.1929 3.90589C14.939 3.53117 15.7622 3.33552 16.5971 3.33447C19.5689 3.33447 21.9792 5.75451 21.9792 8.74568Z" stroke="black" stroke-width="1.56062" stroke-linecap="round" stroke-linejoin="round"/>
</svg>
