<svg width="24" height="24" viewBox="0 0 24 24" fill="none" xmlns="http://www.w3.org/2000/svg">
<path d="M8.75794 4.20567V16.7899M15.6986 6.74187V19.6939M2.68848 7.86477V17.2836C2.68848 19.1228 3.9953 19.8779 5.58285 18.9679L7.85768 17.6708C8.35137 17.39 9.17419 17.361 9.68724 17.6224L14.7693 20.1683C15.2824 20.4199 16.1052 20.4006 16.5989 20.1199L20.7904 17.7192C21.3228 17.4094 21.7681 16.6544 21.7681 16.0348V6.61603C21.7681 4.7768 20.4613 4.02174 18.8737 4.93168L16.5989 6.22882C16.1052 6.50955 15.2824 6.53859 14.7693 6.27722L9.68724 3.74102C9.17419 3.48934 8.35137 3.5087 7.85768 3.78942L3.66617 6.1901C3.12408 6.49987 2.68848 7.25492 2.68848 7.86477Z" stroke="black" stroke-width="1.56062" stroke-linecap="round" stroke-linejoin="round"/>
</svg>
