<svg width="30" height="30" viewBox="0 0 30 30" fill="none" xmlns="http://www.w3.org/2000/svg">
<path d="M15.0252 3.63751C10.8877 3.63751 7.52523 7.00001 7.52523 11.1375V14.75C7.52523 15.5125 7.20023 16.675 6.81273 17.325L5.37523 19.7125C4.48773 21.1875 5.10023 22.825 6.72523 23.375C12.1127 25.175 17.9252 25.175 23.3127 23.375C24.8252 22.875 25.4877 21.0875 24.6627 19.7125L23.2252 17.325C22.8502 16.675 22.5252 15.5125 22.5252 14.75V11.1375C22.5252 7.01251 19.1502 3.63751 15.0252 3.63751Z" stroke="black" stroke-width="1.875" stroke-miterlimit="10" stroke-linecap="round"/>
<path d="M17.3374 4C15.8258 3.56949 14.224 3.56949 12.7124 4C13.0749 3.075 13.9749 2.425 15.0249 2.425C16.0749 2.425 16.9749 3.075 17.3374 4Z" stroke="black" stroke-width="1.875" stroke-miterlimit="10" stroke-linecap="round" stroke-linejoin="round"/>
<path d="M18.7749 23.825C18.7749 25.8875 17.0874 27.575 15.0249 27.575C13.9999 27.575 13.0499 27.15 12.3749 26.475C11.6726 25.7716 11.2771 24.819 11.2749 23.825" stroke="black" stroke-width="1.875" stroke-miterlimit="10"/>
</svg>
