<svg width="23" height="23" viewBox="0 0 23 23" fill="none" xmlns="http://www.w3.org/2000/svg">
<path d="M11.1149 7.17842V12.0412M19.5253 7.9472V14.2828C19.5253 15.3202 18.9695 16.2835 18.0711 16.8114L12.5691 19.9885C11.6707 20.5072 10.5592 20.5072 9.65145 19.9885L4.14953 16.8114C3.70657 16.5546 3.339 16.1857 3.08374 15.7419C2.82848 15.298 2.69452 14.7948 2.69532 14.2828V7.9472C2.69532 6.9098 3.25107 5.9465 4.14953 5.41854L9.65145 2.2415C10.5499 1.7228 11.6614 1.7228 12.5691 2.2415L18.0711 5.41854C18.9695 5.9465 19.5253 6.90054 19.5253 7.9472Z" stroke="black" stroke-width="1.5" stroke-linecap="round" stroke-linejoin="round"/>
<path d="M11.1152 15.0052V15.0979" stroke="black" stroke-width="2" stroke-linecap="round" stroke-linejoin="round"/>
</svg>
